<svg width="309" height="96" viewBox="0 0 309 96" fill="none" xmlns="http://www.w3.org/2000/svg">
<g clip-path="url(#clip0_4052_32)">
<rect width="96" height="96" rx="48" fill="white"/>
<circle cx="48" cy="48" r="44" fill="white" stroke="black" stroke-width="8"/>
<path d="M30.28 60.88C31 60.96 31.68 61.0933 32.32 61.28C32.96 61.44 33.56 61.6267 34.12 61.84V63H23.16V61.84C23.6933 61.5733 24.24 61.3733 24.8 61.24C25.36 61.1067 25.9067 60.9867 26.44 60.88V37.16C25.8267 37.0533 25.2533 36.92 24.72 36.76C24.1867 36.5733 23.6667 36.3733 23.16 36.16V35H26.76C27.8267 35 28.9867 34.9467 30.24 34.84C31.4933 34.7333 32.6933 34.68 33.84 34.68C35.1467 34.68 36.4267 34.8267 37.68 35.12C38.9333 35.3867 40.04 35.8533 41 36.52C41.9867 37.1867 42.7733 38.08 43.36 39.2C43.9733 40.2933 44.28 41.6667 44.28 43.32C44.28 44.8933 43.9733 46.24 43.36 47.36C42.7467 48.48 41.92 49.4 40.88 50.12C39.8667 50.84 38.7067 51.3733 37.4 51.72C36.0933 52.04 34.7467 52.2 33.36 52.2C33.2267 52.2 33.0133 52.2 32.72 52.2C32.4533 52.2 32.16 52.2 31.84 52.2C31.52 52.1733 31.2133 52.1467 30.92 52.12C30.6267 52.0933 30.4133 52.0667 30.28 52.04V60.88ZM33 36.76C32.36 36.76 31.84 36.7733 31.44 36.8C31.04 36.8267 30.6533 36.88 30.28 36.96V49.92C30.4133 49.9733 30.6 50.0133 30.84 50.04C31.1067 50.04 31.3733 50.0533 31.64 50.08C31.9333 50.1067 32.2133 50.12 32.48 50.12C32.7467 50.12 32.96 50.12 33.12 50.12C34.0533 50.12 34.9333 50 35.76 49.76C36.5867 49.4933 37.3067 49.08 37.92 48.52C38.56 47.96 39.0667 47.2533 39.44 46.4C39.8133 45.5467 40 44.52 40 43.32C40 41.1333 39.3733 39.4933 38.12 38.4C36.8933 37.3067 35.1867 36.76 33 36.76Z" fill="black"/>
<path d="M58.28 60.88C58.8933 61.0133 59.48 61.16 60.04 61.32C60.6 61.4533 61.1467 61.6267 61.68 61.84V63H51.16V61.84C51.7467 61.5733 52.3067 61.3733 52.84 61.24C53.3733 61.1067 53.9067 60.9867 54.44 60.88V37.16C53.7467 37.0267 53.1333 36.88 52.6 36.72C52.0667 36.5333 51.5867 36.3467 51.16 36.16V35H54.68C55.7467 35 56.9067 34.9467 58.16 34.84C59.44 34.7333 60.68 34.68 61.88 34.68C63.1867 34.68 64.4 34.8267 65.52 35.12C66.6667 35.4133 67.6533 35.88 68.48 36.52C69.3067 37.16 69.9467 37.9733 70.4 38.96C70.88 39.9467 71.12 41.1333 71.12 42.52C71.12 44.4667 70.6 46.08 69.56 47.36C68.5467 48.64 67.16 49.56 65.4 50.12C66.5467 51.9333 67.7467 53.7333 69 55.52C70.2533 57.3067 71.56 59.08 72.92 60.84L75.08 62V63H70.24L68.72 61.88C67.9733 60.9467 67.2933 60.04 66.68 59.16C66.0667 58.2533 65.4933 57.3467 64.96 56.44C64.4267 55.5067 63.92 54.5733 63.44 53.64C62.9867 52.68 62.52 51.6667 62.04 50.6H58.28V60.88ZM61 36.76C60.36 36.76 59.8267 36.7733 59.4 36.8C59 36.8267 58.6267 36.88 58.28 36.96V48.92H61.16C63 48.92 64.4533 48.3333 65.52 47.16C66.6133 45.9867 67.16 44.44 67.16 42.52C67.16 40.5467 66.5867 39.0933 65.44 38.16C64.2933 37.2267 62.8133 36.76 61 36.76Z" fill="black"/>
</g>
<path d="M119.659 40.039C120.325 40.113 120.954 40.2363 121.546 40.409C122.138 40.557 122.693 40.7297 123.211 40.927V42H113.073V40.927C113.566 40.6803 114.072 40.4953 114.59 40.372C115.108 40.2487 115.614 40.1377 116.107 40.039V18.098C115.54 17.9993 115.009 17.876 114.516 17.728C114.023 17.5553 113.542 17.3703 113.073 17.173V16.1H116.403C117.39 16.1 118.463 16.0507 119.622 15.952C120.781 15.8533 121.891 15.804 122.952 15.804C124.161 15.804 125.345 15.9397 126.504 16.211C127.663 16.4577 128.687 16.8893 129.575 17.506C130.488 18.1227 131.215 18.949 131.758 19.985C132.325 20.9963 132.609 22.2667 132.609 23.796C132.609 25.2513 132.325 26.497 131.758 27.533C131.191 28.569 130.426 29.42 129.464 30.086C128.527 30.752 127.454 31.2453 126.245 31.566C125.036 31.862 123.791 32.01 122.508 32.01C122.385 32.01 122.187 32.01 121.916 32.01C121.669 32.01 121.398 32.01 121.102 32.01C120.806 31.9853 120.522 31.9607 120.251 31.936C119.98 31.9113 119.782 31.8867 119.659 31.862V40.039ZM122.175 17.728C121.583 17.728 121.102 17.7403 120.732 17.765C120.362 17.7897 120.004 17.839 119.659 17.913V29.901C119.782 29.9503 119.955 29.9873 120.177 30.012C120.424 30.012 120.67 30.0243 120.917 30.049C121.188 30.0737 121.447 30.086 121.694 30.086C121.941 30.086 122.138 30.086 122.286 30.086C123.149 30.086 123.963 29.975 124.728 29.753C125.493 29.5063 126.159 29.124 126.726 28.606C127.318 28.088 127.787 27.4343 128.132 26.645C128.477 25.8557 128.65 24.906 128.65 23.796C128.65 21.7733 128.07 20.2563 126.911 19.245C125.776 18.2337 124.198 17.728 122.175 17.728ZM143.033 26.275C142.762 26.423 142.416 26.7313 141.997 27.2C141.602 27.644 141.245 28.31 140.924 29.198V40.187C141.417 40.2363 141.911 40.335 142.404 40.483C142.897 40.6063 143.391 40.8037 143.884 41.075V42H135.152V41.075C135.596 40.8283 136.015 40.6433 136.41 40.52C136.805 40.3967 137.199 40.2857 137.594 40.187V25.646L135.152 25.35V24.388C135.941 24.0427 136.755 23.7713 137.594 23.574C138.433 23.352 139.234 23.1793 139.999 23.056H140.924V26.978H141.072C141.294 26.4847 141.602 25.9913 141.997 25.498C142.416 25.0047 142.885 24.5607 143.403 24.166C143.946 23.7713 144.525 23.4753 145.142 23.278C145.783 23.056 146.437 22.982 147.103 23.056C147.276 23.3767 147.424 23.7343 147.547 24.129C147.695 24.499 147.831 24.8937 147.954 25.313V26.275H143.033ZM163.375 37.153C163.375 37.6957 163.387 38.1643 163.412 38.559C163.437 38.9537 163.461 39.373 163.486 39.817L166.039 40.187V40.964C165.422 41.2847 164.732 41.5683 163.967 41.815C163.227 42.0617 162.512 42.2467 161.821 42.37H160.896C160.649 41.8027 160.501 41.186 160.452 40.52C160.403 39.8293 160.366 39.077 160.341 38.263H160.156C160.057 38.7563 159.86 39.262 159.564 39.78C159.293 40.2733 158.923 40.7173 158.454 41.112C158.01 41.5067 157.48 41.8273 156.863 42.074C156.246 42.3207 155.543 42.444 154.754 42.444C153.249 42.444 152.016 41.9877 151.054 41.075C150.117 40.1623 149.648 38.966 149.648 37.486C149.648 36.3513 149.87 35.4263 150.314 34.711C150.783 33.971 151.461 33.3913 152.349 32.972C153.237 32.5527 154.335 32.2567 155.642 32.084C156.949 31.8867 158.466 31.7387 160.193 31.64C160.292 30.5793 160.316 29.6297 160.267 28.791C160.242 27.9277 160.107 27.2 159.86 26.608C159.638 25.9913 159.293 25.5227 158.824 25.202C158.38 24.8567 157.788 24.684 157.048 24.684C156.703 24.684 156.308 24.7087 155.864 24.758C155.445 24.7827 155.025 24.8813 154.606 25.054L152.867 29.494H151.905C151.658 28.754 151.436 27.9893 151.239 27.2C151.066 26.4107 150.955 25.6337 150.906 24.869C151.843 24.3017 152.879 23.8577 154.014 23.537C155.173 23.2163 156.456 23.056 157.862 23.056C159.12 23.056 160.119 23.241 160.859 23.611C161.624 23.9563 162.203 24.4127 162.598 24.98C162.993 25.5473 163.252 26.1763 163.375 26.867C163.498 27.5577 163.56 28.2483 163.56 28.939C163.56 30.419 163.523 31.8497 163.449 33.231C163.4 34.5877 163.375 35.895 163.375 37.153ZM156.234 40.15C156.851 40.15 157.393 40.0267 157.862 39.78C158.331 39.5333 158.725 39.2373 159.046 38.892C159.367 38.5467 159.626 38.2013 159.823 37.856C160.02 37.486 160.156 37.1777 160.23 36.931V33.046C158.799 33.046 157.628 33.12 156.715 33.268C155.802 33.416 155.087 33.6503 154.569 33.971C154.051 34.2917 153.693 34.6987 153.496 35.192C153.299 35.6607 153.2 36.2033 153.2 36.82C153.2 37.8807 153.471 38.707 154.014 39.299C154.557 39.8663 155.297 40.15 156.234 40.15ZM175.692 42.444L168.477 25.35C167.761 25.1033 167.108 24.8073 166.516 24.462V23.5H174.249V24.425C173.928 24.5977 173.595 24.7703 173.25 24.943C172.929 25.091 172.559 25.2267 172.14 25.35L176.432 36.487L177.172 38.781H177.246L177.801 36.45L181.76 25.35C181.365 25.2513 180.995 25.128 180.65 24.98C180.329 24.832 180.021 24.6593 179.725 24.462V23.5H186.015V24.462C185.768 24.6347 185.46 24.795 185.09 24.943C184.744 25.091 184.35 25.2267 183.906 25.35L177.357 42L175.692 42.444ZM201.49 39.41C201.293 39.8293 200.985 40.224 200.565 40.594C200.146 40.964 199.665 41.2847 199.122 41.556C198.58 41.8273 197.988 42.037 197.346 42.185C196.705 42.3577 196.051 42.444 195.385 42.444C193.93 42.444 192.647 42.222 191.537 41.778C190.427 41.3093 189.502 40.6557 188.762 39.817C188.022 38.9537 187.455 37.93 187.06 36.746C186.69 35.562 186.505 34.23 186.505 32.75C186.505 29.5927 187.233 27.1877 188.688 25.535C190.144 23.8823 192.203 23.056 194.867 23.056C195.731 23.056 196.582 23.1793 197.42 23.426C198.259 23.648 198.999 24.0303 199.64 24.573C200.306 25.1157 200.837 25.8433 201.231 26.756C201.651 27.644 201.86 28.754 201.86 30.086C201.86 30.5053 201.836 30.937 201.786 31.381C201.762 31.8003 201.7 32.2567 201.601 32.75H190.057C190.057 33.786 190.181 34.7603 190.427 35.673C190.699 36.561 191.093 37.338 191.611 38.004C192.129 38.67 192.783 39.2003 193.572 39.595C194.362 39.965 195.287 40.15 196.347 40.15C197.211 40.15 198.086 40.0267 198.974 39.78C199.862 39.5333 200.528 39.2127 200.972 38.818L201.49 39.41ZM194.719 24.684C193.313 24.684 192.24 25.165 191.5 26.127C190.76 27.0643 190.316 28.7293 190.168 31.122H198.308C198.333 30.9 198.345 30.6903 198.345 30.493C198.37 30.271 198.382 30.0613 198.382 29.864C198.382 28.2853 198.086 27.0273 197.494 26.09C196.902 25.1527 195.977 24.684 194.719 24.684ZM220.099 39.41C219.901 39.8293 219.593 40.224 219.174 40.594C218.754 40.964 218.273 41.2847 217.731 41.556C217.188 41.8273 216.596 42.037 215.955 42.185C215.313 42.3577 214.66 42.444 213.994 42.444C212.538 42.444 211.256 42.222 210.146 41.778C209.036 41.3093 208.111 40.6557 207.371 39.817C206.631 38.9537 206.063 37.93 205.669 36.746C205.299 35.562 205.114 34.23 205.114 32.75C205.114 29.5927 205.841 27.1877 207.297 25.535C208.752 23.8823 210.812 23.056 213.476 23.056C214.339 23.056 215.19 23.1793 216.029 23.426C216.867 23.648 217.607 24.0303 218.249 24.573C218.915 25.1157 219.445 25.8433 219.84 26.756C220.259 27.644 220.469 28.754 220.469 30.086C220.469 30.5053 220.444 30.937 220.395 31.381C220.37 31.8003 220.308 32.2567 220.21 32.75H208.666C208.666 33.786 208.789 34.7603 209.036 35.673C209.307 36.561 209.702 37.338 210.22 38.004C210.738 38.67 211.391 39.2003 212.181 39.595C212.97 39.965 213.895 40.15 214.956 40.15C215.819 40.15 216.695 40.0267 217.583 39.78C218.471 39.5333 219.137 39.2127 219.581 38.818L220.099 39.41ZM213.328 24.684C211.922 24.684 210.849 25.165 210.109 26.127C209.369 27.0643 208.925 28.7293 208.777 31.122H216.917C216.941 30.9 216.954 30.6903 216.954 30.493C216.978 30.271 216.991 30.0613 216.991 29.864C216.991 28.2853 216.695 27.0273 216.103 26.09C215.511 25.1527 214.586 24.684 213.328 24.684ZM243.554 42H235.599V41.075C236.265 40.7297 236.993 40.4337 237.782 40.187V31.418C237.782 29.5433 237.511 28.0633 236.968 26.978C236.425 25.8927 235.439 25.35 234.008 25.35C233.391 25.35 232.812 25.461 232.269 25.683C231.751 25.905 231.282 26.2133 230.863 26.608C230.468 26.978 230.123 27.4097 229.827 27.903C229.531 28.3717 229.297 28.865 229.124 29.383V40.187C229.889 40.335 230.629 40.631 231.344 41.075V42H223.352V41.075C223.969 40.7543 224.783 40.4583 225.794 40.187V25.646L223.352 25.35V24.388C223.993 24.1167 224.733 23.87 225.572 23.648C226.411 23.426 227.286 23.2287 228.199 23.056H229.124V27.2H229.161C229.679 26.0653 230.419 25.091 231.381 24.277C232.368 23.463 233.552 23.056 234.933 23.056C235.92 23.056 236.795 23.1793 237.56 23.426C238.349 23.648 239.003 24.055 239.521 24.647C240.039 25.239 240.434 26.0407 240.705 27.052C240.976 28.0387 241.112 29.2967 241.112 30.826V40.187C242.099 40.3597 242.913 40.6557 243.554 41.075V42Z" fill="black"/>
<path d="M119.659 82.039C120.226 82.1623 120.769 82.298 121.287 82.446C121.805 82.5693 122.311 82.7297 122.804 82.927V84H113.073V82.927C113.616 82.6803 114.134 82.4953 114.627 82.372C115.12 82.2487 115.614 82.1377 116.107 82.039V60.098C115.466 59.9747 114.898 59.839 114.405 59.691C113.912 59.5183 113.468 59.3457 113.073 59.173V58.1H116.329C117.316 58.1 118.389 58.0507 119.548 57.952C120.732 57.8533 121.879 57.804 122.989 57.804C124.198 57.804 125.32 57.9397 126.356 58.211C127.417 58.4823 128.329 58.914 129.094 59.506C129.859 60.098 130.451 60.8503 130.87 61.763C131.314 62.6757 131.536 63.7733 131.536 65.056C131.536 66.8567 131.055 68.349 130.093 69.533C129.156 70.717 127.873 71.568 126.245 72.086C127.306 73.7633 128.416 75.4283 129.575 77.081C130.734 78.7337 131.943 80.374 133.201 82.002L135.199 83.075V84H130.722L129.316 82.964C128.625 82.1007 127.996 81.262 127.429 80.448C126.862 79.6093 126.331 78.7707 125.838 77.932C125.345 77.0687 124.876 76.2053 124.432 75.342C124.013 74.454 123.581 73.5167 123.137 72.53H119.659V82.039ZM122.175 59.728C121.583 59.728 121.09 59.7403 120.695 59.765C120.325 59.7897 119.98 59.839 119.659 59.913V70.976H122.323C124.025 70.976 125.369 70.4333 126.356 69.348C127.367 68.2627 127.873 66.832 127.873 65.056C127.873 63.2307 127.343 61.8863 126.282 61.023C125.221 60.1597 123.852 59.728 122.175 59.728ZM151.374 81.41C151.177 81.8293 150.868 82.224 150.449 82.594C150.03 82.964 149.549 83.2847 149.006 83.556C148.463 83.8273 147.871 84.037 147.23 84.185C146.589 84.3577 145.935 84.444 145.269 84.444C143.814 84.444 142.531 84.222 141.421 83.778C140.311 83.3093 139.386 82.6557 138.646 81.817C137.906 80.9537 137.339 79.93 136.944 78.746C136.574 77.562 136.389 76.23 136.389 74.75C136.389 71.5927 137.117 69.1877 138.572 67.535C140.027 65.8823 142.087 65.056 144.751 65.056C145.614 65.056 146.465 65.1793 147.304 65.426C148.143 65.648 148.883 66.0303 149.524 66.573C150.19 67.1157 150.72 67.8433 151.115 68.756C151.534 69.644 151.744 70.754 151.744 72.086C151.744 72.5053 151.719 72.937 151.67 73.381C151.645 73.8003 151.584 74.2567 151.485 74.75H139.941C139.941 75.786 140.064 76.7603 140.311 77.673C140.582 78.561 140.977 79.338 141.495 80.004C142.013 80.67 142.667 81.2003 143.456 81.595C144.245 81.965 145.17 82.15 146.231 82.15C147.094 82.15 147.97 82.0267 148.858 81.78C149.746 81.5333 150.412 81.2127 150.856 80.818L151.374 81.41ZM144.603 66.684C143.197 66.684 142.124 67.165 141.384 68.127C140.644 69.0643 140.2 70.7293 140.052 73.122H148.192C148.217 72.9 148.229 72.6903 148.229 72.493C148.254 72.271 148.266 72.0613 148.266 71.864C148.266 70.2853 147.97 69.0273 147.378 68.09C146.786 67.1527 145.861 66.684 144.603 66.684ZM161.636 84.444L154.421 67.35C153.706 67.1033 153.052 66.8073 152.46 66.462V65.5H160.193V66.425C159.872 66.5977 159.539 66.7703 159.194 66.943C158.873 67.091 158.503 67.2267 158.084 67.35L162.376 78.487L163.116 80.781H163.19L163.745 78.45L167.704 67.35C167.309 67.2513 166.939 67.128 166.594 66.98C166.273 66.832 165.965 66.6593 165.669 66.462V65.5H171.959V66.462C171.712 66.6347 171.404 66.795 171.034 66.943C170.689 67.091 170.294 67.2267 169.85 67.35L163.301 84L161.636 84.444ZM186.753 79.153C186.753 79.6957 186.765 80.1643 186.79 80.559C186.815 80.9537 186.839 81.373 186.864 81.817L189.417 82.187V82.964C188.8 83.2847 188.11 83.5683 187.345 83.815C186.605 84.0617 185.89 84.2467 185.199 84.37H184.274C184.027 83.8027 183.879 83.186 183.83 82.52C183.781 81.8293 183.744 81.077 183.719 80.263H183.534C183.435 80.7563 183.238 81.262 182.942 81.78C182.671 82.2733 182.301 82.7173 181.832 83.112C181.388 83.5067 180.858 83.8273 180.241 84.074C179.624 84.3207 178.921 84.444 178.132 84.444C176.627 84.444 175.394 83.9877 174.432 83.075C173.495 82.1623 173.026 80.966 173.026 79.486C173.026 78.3513 173.248 77.4263 173.692 76.711C174.161 75.971 174.839 75.3913 175.727 74.972C176.615 74.5527 177.713 74.2567 179.02 74.084C180.327 73.8867 181.844 73.7387 183.571 73.64C183.67 72.5793 183.694 71.6297 183.645 70.791C183.62 69.9277 183.485 69.2 183.238 68.608C183.016 67.9913 182.671 67.5227 182.202 67.202C181.758 66.8567 181.166 66.684 180.426 66.684C180.081 66.684 179.686 66.7087 179.242 66.758C178.823 66.7827 178.403 66.8813 177.984 67.054L176.245 71.494H175.283C175.036 70.754 174.814 69.9893 174.617 69.2C174.444 68.4107 174.333 67.6337 174.284 66.869C175.221 66.3017 176.257 65.8577 177.392 65.537C178.551 65.2163 179.834 65.056 181.24 65.056C182.498 65.056 183.497 65.241 184.237 65.611C185.002 65.9563 185.581 66.4127 185.976 66.98C186.371 67.5473 186.63 68.1763 186.753 68.867C186.876 69.5577 186.938 70.2483 186.938 70.939C186.938 72.419 186.901 73.8497 186.827 75.231C186.778 76.5877 186.753 77.895 186.753 79.153ZM179.612 82.15C180.229 82.15 180.771 82.0267 181.24 81.78C181.709 81.5333 182.103 81.2373 182.424 80.892C182.745 80.5467 183.004 80.2013 183.201 79.856C183.398 79.486 183.534 79.1777 183.608 78.931V75.046C182.177 75.046 181.006 75.12 180.093 75.268C179.18 75.416 178.465 75.6503 177.947 75.971C177.429 76.2917 177.071 76.6987 176.874 77.192C176.677 77.6607 176.578 78.2033 176.578 78.82C176.578 79.8807 176.849 80.707 177.392 81.299C177.935 81.8663 178.675 82.15 179.612 82.15ZM190.819 66.388C191.756 65.796 192.743 65.3767 193.779 65.13V61.985C194.099 61.7137 194.469 61.4793 194.889 61.282C195.333 61.06 195.764 60.8503 196.184 60.653H197.109V65.5H202.659V67.35H197.109V78.08C197.109 79.56 197.343 80.6083 197.812 81.225C198.28 81.8417 198.983 82.15 199.921 82.15C200.365 82.15 200.92 82.1253 201.586 82.076C202.252 82.002 202.819 81.8787 203.288 81.706L203.547 82.261C203.349 82.483 203.066 82.7173 202.696 82.964C202.35 83.2107 201.943 83.445 201.475 83.667C201.031 83.889 200.537 84.074 199.995 84.222C199.452 84.37 198.897 84.444 198.33 84.444C196.85 84.444 195.715 84.0247 194.926 83.186C194.161 82.3473 193.779 80.9907 193.779 79.116V67.35H190.819V66.388ZM219.164 79.153C219.164 79.6957 219.176 80.1643 219.201 80.559C219.226 80.9537 219.25 81.373 219.275 81.817L221.828 82.187V82.964C221.211 83.2847 220.521 83.5683 219.756 83.815C219.016 84.0617 218.301 84.2467 217.61 84.37H216.685C216.438 83.8027 216.29 83.186 216.241 82.52C216.192 81.8293 216.155 81.077 216.13 80.263H215.945C215.846 80.7563 215.649 81.262 215.353 81.78C215.082 82.2733 214.712 82.7173 214.243 83.112C213.799 83.5067 213.269 83.8273 212.652 84.074C212.035 84.3207 211.332 84.444 210.543 84.444C209.038 84.444 207.805 83.9877 206.843 83.075C205.906 82.1623 205.437 80.966 205.437 79.486C205.437 78.3513 205.659 77.4263 206.103 76.711C206.572 75.971 207.25 75.3913 208.138 74.972C209.026 74.5527 210.124 74.2567 211.431 74.084C212.738 73.8867 214.255 73.7387 215.982 73.64C216.081 72.5793 216.105 71.6297 216.056 70.791C216.031 69.9277 215.896 69.2 215.649 68.608C215.427 67.9913 215.082 67.5227 214.613 67.202C214.169 66.8567 213.577 66.684 212.837 66.684C212.492 66.684 212.097 66.7087 211.653 66.758C211.234 66.7827 210.814 66.8813 210.395 67.054L208.656 71.494H207.694C207.447 70.754 207.225 69.9893 207.028 69.2C206.855 68.4107 206.744 67.6337 206.695 66.869C207.632 66.3017 208.668 65.8577 209.803 65.537C210.962 65.2163 212.245 65.056 213.651 65.056C214.909 65.056 215.908 65.241 216.648 65.611C217.413 65.9563 217.992 66.4127 218.387 66.98C218.782 67.5473 219.041 68.1763 219.164 68.867C219.287 69.5577 219.349 70.2483 219.349 70.939C219.349 72.419 219.312 73.8497 219.238 75.231C219.189 76.5877 219.164 77.895 219.164 79.153ZM212.023 82.15C212.64 82.15 213.182 82.0267 213.651 81.78C214.12 81.5333 214.514 81.2373 214.835 80.892C215.156 80.5467 215.415 80.2013 215.612 79.856C215.809 79.486 215.945 79.1777 216.019 78.931V75.046C214.588 75.046 213.417 75.12 212.504 75.268C211.591 75.416 210.876 75.6503 210.358 75.971C209.84 76.2917 209.482 76.6987 209.285 77.192C209.088 77.6607 208.989 78.2033 208.989 78.82C208.989 79.8807 209.26 80.707 209.803 81.299C210.346 81.8663 211.086 82.15 212.023 82.15ZM231.814 65.056C233.146 65.056 234.268 65.1917 235.181 65.463C236.093 65.7097 236.858 66.1043 237.475 66.647C238.93 65.6603 240.447 64.945 242.026 64.501C242.223 64.7723 242.359 65.1053 242.433 65.5C242.531 65.8947 242.581 66.2647 242.581 66.61L242.1 67.498H238.215C238.831 68.386 239.14 69.5577 239.14 71.013C239.14 72.789 238.511 74.232 237.253 75.342C236.019 76.452 234.206 77.007 231.814 77.007C231.345 77.007 230.963 76.9947 230.667 76.97C230.371 76.9453 230.038 76.9083 229.668 76.859C229.544 77.081 229.396 77.3277 229.224 77.599C229.076 77.8703 229.002 78.154 229.002 78.45C229.002 78.9433 229.285 79.338 229.853 79.634C230.42 79.9053 231.123 80.152 231.962 80.374C232.825 80.596 233.75 80.8303 234.737 81.077C235.748 81.299 236.685 81.6197 237.549 82.039C238.412 82.4337 239.127 82.964 239.695 83.63C240.287 84.2713 240.595 85.11 240.62 86.146C240.644 87.034 240.435 87.8357 239.991 88.551C239.571 89.2663 238.979 89.8583 238.215 90.327C237.45 90.8203 236.525 91.1903 235.44 91.437C234.379 91.7083 233.207 91.844 231.925 91.844C229.236 91.844 227.201 91.3877 225.82 90.475C224.463 89.5623 223.785 88.4153 223.785 87.034C223.785 86.368 223.883 85.7883 224.081 85.295C224.303 84.8017 224.611 84.37 225.006 84C225.4 83.63 225.894 83.3093 226.486 83.038C227.078 82.742 227.756 82.4707 228.521 82.224C227.978 81.9773 227.522 81.6443 227.152 81.225C226.806 80.781 226.634 80.2507 226.634 79.634C226.634 79.0667 226.868 78.5117 227.337 77.969C227.83 77.4017 228.323 76.9577 228.817 76.637C227.411 76.267 226.325 75.564 225.561 74.528C224.821 73.492 224.451 72.3203 224.451 71.013C224.451 70.1743 224.611 69.3973 224.932 68.682C225.252 67.942 225.721 67.3007 226.338 66.758C226.954 66.2153 227.719 65.796 228.632 65.5C229.544 65.204 230.605 65.056 231.814 65.056ZM237.29 86.997C237.29 86.2077 237.018 85.5787 236.476 85.11C235.958 84.6413 235.304 84.259 234.515 83.963C233.725 83.667 232.874 83.4203 231.962 83.223C231.049 83.0257 230.198 82.8037 229.409 82.557C228.471 83.1243 227.855 83.7163 227.559 84.333C227.263 84.9743 227.115 85.628 227.115 86.294C227.115 87.6013 227.583 88.5757 228.521 89.217C229.458 89.883 230.815 90.216 232.591 90.216C233.503 90.216 234.256 90.1297 234.848 89.957C235.464 89.7843 235.945 89.55 236.291 89.254C236.661 88.9827 236.92 88.6497 237.068 88.255C237.216 87.8603 237.29 87.441 237.29 86.997ZM227.781 71.013C227.781 71.605 227.842 72.1723 227.966 72.715C228.114 73.233 228.336 73.6893 228.632 74.084C228.952 74.4787 229.372 74.7993 229.89 75.046C230.408 75.268 231.049 75.379 231.814 75.379C233.244 75.379 234.268 74.9597 234.885 74.121C235.501 73.2823 235.81 72.2463 235.81 71.013C235.81 69.681 235.501 68.6327 234.885 67.868C234.293 67.0787 233.269 66.684 231.814 66.684C230.309 66.684 229.261 67.0663 228.669 67.831C228.077 68.571 227.781 69.6317 227.781 71.013ZM257.32 79.153C257.32 79.6957 257.333 80.1643 257.357 80.559C257.382 80.9537 257.407 81.373 257.431 81.817L259.984 82.187V82.964C259.368 83.2847 258.677 83.5683 257.912 83.815C257.172 84.0617 256.457 84.2467 255.766 84.37H254.841C254.595 83.8027 254.447 83.186 254.397 82.52C254.348 81.8293 254.311 81.077 254.286 80.263H254.101C254.003 80.7563 253.805 81.262 253.509 81.78C253.238 82.2733 252.868 82.7173 252.399 83.112C251.955 83.5067 251.425 83.8273 250.808 84.074C250.192 84.3207 249.489 84.444 248.699 84.444C247.195 84.444 245.961 83.9877 244.999 83.075C244.062 82.1623 243.593 80.966 243.593 79.486C243.593 78.3513 243.815 77.4263 244.259 76.711C244.728 75.971 245.406 75.3913 246.294 74.972C247.182 74.5527 248.28 74.2567 249.587 74.084C250.895 73.8867 252.412 73.7387 254.138 73.64C254.237 72.5793 254.262 71.6297 254.212 70.791C254.188 69.9277 254.052 69.2 253.805 68.608C253.583 67.9913 253.238 67.5227 252.769 67.202C252.325 66.8567 251.733 66.684 250.993 66.684C250.648 66.684 250.253 66.7087 249.809 66.758C249.39 66.7827 248.971 66.8813 248.551 67.054L246.812 71.494H245.85C245.604 70.754 245.382 69.9893 245.184 69.2C245.012 68.4107 244.901 67.6337 244.851 66.869C245.789 66.3017 246.825 65.8577 247.959 65.537C249.119 65.2163 250.401 65.056 251.807 65.056C253.065 65.056 254.064 65.241 254.804 65.611C255.569 65.9563 256.149 66.4127 256.543 66.98C256.938 67.5473 257.197 68.1763 257.32 68.867C257.444 69.5577 257.505 70.2483 257.505 70.939C257.505 72.419 257.468 73.8497 257.394 75.231C257.345 76.5877 257.32 77.895 257.32 79.153ZM250.179 82.15C250.796 82.15 251.339 82.0267 251.807 81.78C252.276 81.5333 252.671 81.2373 252.991 80.892C253.312 80.5467 253.571 80.2013 253.768 79.856C253.966 79.486 254.101 79.1777 254.175 78.931V75.046C252.745 75.046 251.573 75.12 250.66 75.268C249.748 75.416 249.032 75.6503 248.514 75.971C247.996 76.2917 247.639 76.6987 247.441 77.192C247.244 77.6607 247.145 78.2033 247.145 78.82C247.145 79.8807 247.417 80.707 247.959 81.299C248.502 81.8663 249.242 82.15 250.179 82.15ZM262.348 74.75C262.348 73.196 262.545 71.827 262.94 70.643C263.359 69.4343 263.951 68.423 264.716 67.609C265.481 66.7703 266.393 66.1413 267.454 65.722C268.539 65.278 269.736 65.056 271.043 65.056C272.572 65.056 273.892 65.2903 275.002 65.759C276.112 66.2277 277.012 66.8937 277.703 67.757C278.418 68.5957 278.936 69.607 279.257 70.791C279.602 71.975 279.775 73.2947 279.775 74.75C279.775 77.858 278.986 80.2507 277.407 81.928C275.828 83.6053 273.707 84.444 271.043 84.444C269.563 84.444 268.28 84.222 267.195 83.778C266.11 83.3093 265.209 82.6557 264.494 81.817C263.779 80.9537 263.236 79.93 262.866 78.746C262.521 77.5373 262.348 76.2053 262.348 74.75ZM265.9 74.75C265.9 75.86 265.999 76.9083 266.196 77.895C266.418 78.8817 266.751 79.745 267.195 80.485C267.664 81.2003 268.268 81.7677 269.008 82.187C269.748 82.6063 270.636 82.816 271.672 82.816C273.004 82.816 274.089 82.1623 274.928 80.855C275.791 79.5477 276.223 77.5127 276.223 74.75C276.223 73.6153 276.112 72.567 275.89 71.605C275.693 70.6183 275.372 69.7673 274.928 69.052C274.484 68.312 273.917 67.7323 273.226 67.313C272.535 66.8937 271.709 66.684 270.747 66.684C269.292 66.684 268.12 67.3377 267.232 68.645C266.344 69.9523 265.9 71.9873 265.9 74.75ZM302.631 84H294.676V83.075C295.342 82.7297 296.07 82.4337 296.859 82.187V73.418C296.859 71.5433 296.588 70.0633 296.045 68.978C295.503 67.8927 294.516 67.35 293.085 67.35C292.469 67.35 291.889 67.461 291.346 67.683C290.828 67.905 290.36 68.2133 289.94 68.608C289.546 68.978 289.2 69.4097 288.904 69.903C288.608 70.3717 288.374 70.865 288.201 71.383V82.187C288.966 82.335 289.706 82.631 290.421 83.075V84H282.429V83.075C283.046 82.7543 283.86 82.4583 284.871 82.187V67.646L282.429 67.35V66.388C283.071 66.1167 283.811 65.87 284.649 65.648C285.488 65.426 286.364 65.2287 287.276 65.056H288.201V69.2H288.238C288.756 68.0653 289.496 67.091 290.458 66.277C291.445 65.463 292.629 65.056 294.01 65.056C294.997 65.056 295.873 65.1793 296.637 65.426C297.427 65.648 298.08 66.055 298.598 66.647C299.116 67.239 299.511 68.0407 299.782 69.052C300.054 70.0387 300.189 71.2967 300.189 72.826V82.187C301.176 82.3597 301.99 82.6557 302.631 83.075V84Z" fill="black"/>
<defs>
<clipPath id="clip0_4052_32">
<rect width="96" height="96" rx="48" fill="white"/>
</clipPath>
</defs>
</svg>
